<mxfile host="app.diagrams.net" modified="2021-08-24T16:14:09.209Z" agent="5.0 (X11)" etag="s_1hbktkcYb4C-H6-zSS" version="14.9.9" type="github">
  <diagram id="zgat6zcgVZ0BgCRbOMlH" name="Page-1">
    <mxGraphModel dx="1422" dy="764" grid="1" gridSize="10" guides="1" tooltips="1" connect="1" arrows="1" fold="1" page="1" pageScale="1" pageWidth="827" pageHeight="1169" math="0" shadow="0">
      <root>
        <mxCell id="0" />
        <mxCell id="1" parent="0" />
        <mxCell id="yn6Z4scpIXNP0Bzi4fMZ-1" value="&lt;div style=&quot;font-size: 24.4px&quot;&gt;&lt;font style=&quot;font-size: 24.4px&quot;&gt;AND&lt;/font&gt;&lt;/div&gt;" style="text;html=1;strokeColor=none;fillColor=none;align=center;verticalAlign=middle;whiteSpace=wrap;rounded=0;" vertex="1" parent="1">
          <mxGeometry x="60" y="100" width="40" height="20" as="geometry" />
        </mxCell>
      </root>
    </mxGraphModel>
  </diagram>
</mxfile>
